<svg xmlns="http://www.w3.org/2000/svg" xmlns:xlink="http://www.w3.org/1999/xlink" version="1.1" id="Capa_1" x="0px"
    y="0px" viewBox="0 0 150 150" style="enable-background:new 0 0 150 150;" xml:space="preserve">
    <style type="text/css">
      .st0 {
        fill: #3E1151;
      }
    </style>
    <g>
      <g>
        <path class="st0"
          d="M114.8,126c-0.5,0-1.1-0.2-1.5-0.6l-4.6-4.7l-4.6,4.6c-0.8,0.8-2.1,0.8-2.9,0l-4.6-4.6l-3.5,3.5    c-0.8,0.8-2.1,0.8-2.9,0l-4.1-4.1l-4.1,5c-0.4,0.5-0.9,0.7-1.5,0.8c-0.6,0-1.2-0.2-1.6-0.7l-4.6-5l-4.2,4.3    c-0.4,0.4-0.9,0.6-1.5,0.6c0,0,0,0,0,0c-0.6,0-1.1-0.2-1.5-0.6l-4.3-4.5l-3.9,4.5c-0.4,0.4-0.9,0.7-1.5,0.7    c-0.6,0-1.2-0.2-1.6-0.7l-4.1-4.4l-4.6,3.9c-0.6,0.5-1.5,0.6-2.2,0.3c-0.7-0.3-1.2-1.1-1.2-1.9V26.1c0-1.1,0.9-2.1,2.1-2.1h56.4    c0.1,0,0.2,0,0.3,0c0.6,0.1,13.8,2,14.4,12.6c0.6,9,0,84.1,0,87.3c0,0.8-0.5,1.6-1.3,1.9C115.4,126,115.1,126,114.8,126z     M96.6,115.7c0.5,0,1.1,0.2,1.5,0.6l4.6,4.6l4.6-4.6c0.4-0.4,0.9-0.6,1.5-0.6c0,0,0,0,0,0c0.6,0,1.1,0.2,1.5,0.6l2.6,2.6    c0.1-17.4,0.4-74.5,0-82c-0.4-6.8-9.6-8.5-10.8-8.7H47.8v89.9l2.7-2.3c0.8-0.7,2.1-0.6,2.9,0.2l3.8,4.2l3.8-4.4    c0.4-0.4,0.9-0.7,1.5-0.7c0.6,0,1.1,0.2,1.5,0.6l4.4,4.6l4.3-4.4c0.4-0.4,1-0.6,1.5-0.6c0.6,0,1.1,0.2,1.5,0.7l4.5,4.8l4-5    c0.4-0.5,0.9-0.7,1.5-0.8c0.6,0,1.2,0.2,1.6,0.6l4.2,4.2l3.5-3.5C95.6,115.9,96.1,115.7,96.6,115.7z" />
      </g>
      <g>
        <path class="st0"
          d="M103.8,50.2H56.3c-1.1,0-2.1-0.9-2.1-2.1s0.9-2.1,2.1-2.1h47.5c1.1,0,2.1,0.9,2.1,2.1S104.9,50.2,103.8,50.2z    " />
      </g>
      <g>
        <path class="st0"
          d="M103.8,61.8H56.3c-1.1,0-2.1-0.9-2.1-2.1s0.9-2.1,2.1-2.1h47.5c1.1,0,2.1,0.9,2.1,2.1S104.9,61.8,103.8,61.8z    " />
      </g>
      <g>
        <path class="st0"
          d="M103.8,73.3H56.3c-1.1,0-2.1-0.9-2.1-2.1c0-1.1,0.9-2.1,2.1-2.1h47.5c1.1,0,2.1,0.9,2.1,2.1    C105.8,72.4,104.9,73.3,103.8,73.3z" />
      </g>
      <g>
        <path class="st0"
          d="M68.4,83.1H56.3c-1.1,0-2.1-0.9-2.1-2.1c0-1.1,0.9-2.1,2.1-2.1h12.1c1.1,0,2.1,0.9,2.1,2.1    C70.5,82.2,69.6,83.1,68.4,83.1z" />
      </g>
      <g>
        <path class="st0"
          d="M68.4,94.8H56.3c-1.1,0-2.1-0.9-2.1-2.1c0-1.1,0.9-2.1,2.1-2.1h12.1c1.1,0,2.1,0.9,2.1,2.1    C70.5,93.8,69.6,94.8,68.4,94.8z" />
      </g>
      <g>
        <path class="st0"
          d="M68.4,106.4H56.3c-1.1,0-2.1-0.9-2.1-2.1c0-1.1,0.9-2.1,2.1-2.1h12.1c1.1,0,2.1,0.9,2.1,2.1    C70.5,105.5,69.6,106.4,68.4,106.4z" />
      </g>
      <g>
        <path class="st0"
          d="M93.5,106.4c-0.3,0-0.5,0-0.8-0.1c-1.1-0.4-1.6-1.6-1.2-2.7l9.4-24c0.4-1.1,1.6-1.6,2.7-1.2    c1.1,0.4,1.6,1.6,1.2,2.7l-9.4,24C95.1,105.9,94.3,106.4,93.5,106.4z" />
      </g>
      <g>
        <path class="st0"
          d="M83,106.6c-1.7,0-3.9-0.3-6.6-1.2c-1.1-0.3-1.7-1.5-1.3-2.6c0.3-1.1,1.5-1.7,2.6-1.3c6.1,1.9,8.2,0.5,8.4,0    c0.6-1.9,0-2.6-4-4.5c-2.7-1.3-6.5-3.1-6.1-7.1c0.2-1.7,1-3.1,2.3-4c3.6-2.5,10.3-0.9,11.1-0.7c1.1,0.3,1.8,1.4,1.5,2.5    c-0.3,1.1-1.4,1.8-2.5,1.5l0,0c-2.3-0.6-6.2-0.9-7.7,0.1c-0.4,0.3-0.5,0.6-0.6,1.1c-0.1,1,1.4,1.8,3.8,3c3,1.4,8.1,3.9,6.1,9.6    C89.8,103.3,88.5,106.6,83,106.6z" />
      </g>
      <g>
        <path class="st0"
          d="M45.8,46.4H35.2c-1.1,0-2-0.8-2.1-1.9c-0.7-10.1,0-15.3,2.6-18c2.2-2.4,5.2-2.4,8.2-2.4c0.6,0,1.2,0,1.9,0    c1.2,0,2.1,0.8,2.1,2c0,1.1-0.8,2.1-2,2.1c-0.7,0-1.3,0-2,0c-2.7,0-4.2,0.1-5.2,1.1c-1.5,1.6-2,5.8-1.6,13h8.7    c1.1,0,2.1,0.9,2.1,2.1S46.9,46.4,45.8,46.4z" />
      </g>
      <g>
        <circle class="st0" cx="57.5" cy="39.8" r="1.8" />
      </g>
      <g>
        <circle class="st0" cx="63.9" cy="39.8" r="1.8" />
      </g>
      <g>
        <circle class="st0" cx="70.3" cy="39.8" r="1.8" />
      </g>
      <g>
        <circle class="st0" cx="76.7" cy="39.8" r="1.8" />
      </g>
      <g>
        <circle class="st0" cx="83.1" cy="39.8" r="1.8" />
      </g>
      <g>
        <circle class="st0" cx="89.5" cy="39.8" r="1.8" />
      </g>
      <g>
        <circle class="st0" cx="95.9" cy="39.8" r="1.8" />
      </g>
      <g>
        <circle class="st0" cx="102.3" cy="39.8" r="1.8" />
      </g>
    </g>
  </svg>